<svg width="16" height="16" viewBox="0 0 16 16" fill="none" xmlns="http://www.w3.org/2000/svg">
<path d="M4.10033 2.20005C5.40031 1.30009 7.00037 0.899866 8.60033 0.999854C10.2003 1.09985 11.7005 1.8999 12.8005 2.99985C14.1005 4.39985 14.8005 6.10044 14.8005 8.10044C14.8005 9.70034 14.1999 11.1999 13.1999 12.4999C12.1999 13.6999 10.7999 14.6002 9.19994 14.9002C7.60008 15.2001 6.00022 15 4.60033 14.2C3.20037 13.4 2.10071 12.2 1.50072 10.7C0.900727 9.20005 0.80053 7.49985 1.30053 5.99985C1.80055 4.40002 2.70044 3.09998 4.10033 2.20005ZM8.40014 1.99985C7.10027 1.89991 5.70024 2.19999 4.60033 2.99985C3.50033 3.79985 2.70053 4.90064 2.30053 6.30064C1.90063 7.60054 1.90078 9.00075 2.50072 10.3006C3.1007 11.6004 4.00016 12.6007 5.19994 13.3006C6.39993 14.0006 7.80034 14.2002 9.10033 13.9002C10.4003 13.6003 11.6007 12.9006 12.5007 11.8006C13.3007 10.7006 13.7999 9.39985 13.6999 7.99985C13.6999 6.40002 13.1006 4.79997 12.0007 3.70005C11.0007 2.70005 9.80014 2.09985 8.40014 1.99985ZM11.0007 5.70005L8.60033 8.20005L11.0007 10.7L10.3005 11.4002L7.90014 8.90024L5.50072 11.4002L4.80053 10.7L7.19994 8.20005L4.80053 5.70005L5.50072 4.99985L7.90014 7.49985L10.3005 4.99985L11.0007 5.70005Z" fill="#A1260D"/>
</svg>
