<svg width="16" height="16" viewBox="0 0 16 16" fill="none" xmlns="http://www.w3.org/2000/svg">
<path d="M13.7002 13.2998L13 14L10 11.2002C9.5 11.7002 8.79996 12 8 12C6.3 12 5 10.7 5 9C5.00001 8.30015 5.19977 7.70013 5.59961 7.2002L3.40039 5.2002C2.5004 6.20018 2.00001 7.50002 2 9H1C1.00001 7.3001 1.5997 5.69997 2.59961 4.5L1 3L1.7002 2.2998L13.7002 13.2998ZM6.2998 7.90039C6.09996 8.20034 6.00001 8.60016 6 9C6 10.1 6.9 11 8 11C8.5 11 8.9002 10.7996 9.2002 10.5996L6.2998 7.90039ZM8 6C9.7 6 11 7.3 11 9V9.5L10 8.59961C9.79989 7.79982 9.09996 7.10006 8.2002 7L7.2002 6.09961C7.50003 5.99971 7.7001 6 8 6ZM8 2C11.9 2 15 5.1 15 9H14C14 5.7 11.3 3 8 3C6.80004 3 5.80037 3.30043 4.90039 3.90039L4.09961 3.2002C5.19961 2.4002 6.5 2 8 2Z" fill="currentColor"/>
</svg>
