<svg width="16" height="16" viewBox="0 0 16 16" fill="none" xmlns="http://www.w3.org/2000/svg">
<path d="M6.26953 10.8697H6.97953L11.5394 6.30983L10.8294 5.59984L6.62953 9.80972L4.70963 7.88982L3.99963 8.59982L6.26953 10.8697Z" fill="#388A34"/>
<path fill-rule="evenodd" clip-rule="evenodd" d="M8.59963 0.999863C10.1996 1.09986 11.6996 1.89986 12.7996 2.99986C14.0996 4.39986 14.7996 6.09986 14.7996 8.09986C14.7996 9.69986 14.1996 11.1999 13.1996 12.4999C12.1996 13.6999 10.7996 14.5999 9.19963 14.8999C7.59963 15.1999 5.99963 14.9999 4.59963 14.1999C3.19963 13.3999 2.09963 12.1999 1.49963 10.6999C0.899631 9.19986 0.799631 7.49986 1.29963 5.99986C1.79963 4.39986 2.69963 3.09986 4.09963 2.19986C5.39963 1.29986 6.99963 0.899863 8.59963 0.999863ZM9.09963 13.8999C10.3996 13.5999 11.5996 12.8999 12.4996 11.7999C13.2996 10.6999 13.7996 9.39986 13.6996 7.99986C13.6996 6.39986 13.0996 4.79986 11.9996 3.69986C10.9996 2.69986 9.79963 2.09986 8.39963 1.99986C7.09963 1.89986 5.69963 2.19986 4.59963 2.99986C3.49963 3.79986 2.69963 4.89986 2.29963 6.29986C1.89963 7.59986 1.89963 8.99986 2.49963 10.2999C3.09963 11.5999 3.99963 12.5999 5.19963 13.2999C6.39963 13.9999 7.79963 14.1999 9.09963 13.8999Z" fill="#388A34"/>
</svg>
