<svg width="16" height="16" viewBox="0 0 16 16" fill="none" xmlns="http://www.w3.org/2000/svg">
<path d="M12.0205 2.5V4.33984L11.0205 5.33008V3H4.03516L7.66992 4.25L8 4.70996V13H11.0205V10.6904L12.0205 11.6904V13.5L11.5205 14H8V15L7.36035 15.4697L2.36035 13.75L2 13.29V3L2.02051 2.98535V2.5L2.52051 2H11.5205L12.0205 2.5ZM3 12.9404L7 14.2803V5.05957L3 3.71973V12.9404ZM15.0596 7.63965V8.34961L12.5703 10.8301L11.8701 10.1299L13.5195 8.48047H8.5498V7.48047H13.4805L11.8799 5.87988L12.5898 5.17969L15.0596 7.63965Z" fill="#424242"/>
</svg>
