<?xml version="1.0" encoding="utf-8"?>
<!-- Generator: Adobe Illustrator 25.0.0, SVG Export Plug-In . SVG Version: 6.00 Build 0)  -->
<svg version="1.1" id="Capa_1" xmlns="http://www.w3.org/2000/svg" xmlns:xlink="http://www.w3.org/1999/xlink" x="0px" y="0px"
	 viewBox="0 0 870.4 224.6" style="enable-background:new 0 0 870.4 224.6;" xml:space="preserve">
<style type="text/css">
	.st0{fill:#0096F5;}
	.st1{fill:#404040;}
	.st2{fill:#424242;}
</style>
<g>
	<rect y="0" class="st0" width="26.7" height="26.7"/>
	<rect y="53.3" class="st0" width="26.7" height="106.7"/>
	<rect y="133.3" class="st0" width="106.7" height="26.7"/>
	<rect x="133.3" y="133.3" class="st0" width="26.7" height="26.7"/>
	<rect x="133.3" y="0" class="st0" width="26.7" height="106.7"/>
	<rect x="53.3" y="0" class="st0" width="106.7" height="26.7"/>
	<rect x="53.3" y="53.3" class="st0" width="53.3" height="53.3"/>
	<path class="st1" d="M213.3,133.3V26.7h12.4v95.1H288v11.6h-74.7V133.3z"/>
	<path class="st1" d="M351.2,26.7h2.8l52.6,106.7h-14.2l-9.4-18.5h-60.6l-9.4,18.5h-14L351.2,26.7z M353.3,51.9h-1.4l-22.6,49.4
		l-0.9,1.6H377l-0.9-1.6L353.3,51.9z"/>
	<path class="st1" d="M390.6,26.7h87.3v11.6h-37.5v95.1H428V38.2h-37.3V26.7H390.6z"/>
	<path class="st1" d="M508.3,133.3h-12.4V26.7h12.4V133.3z"/>
	<path class="st1" d="M632,133.3h-3.7l-77-80.5v80.5h-12.4V26.7h3.7l77,80.2V26.7H632V133.3z"/>
	<path class="st1" d="M700.4,26.7h4.3l56,106.7h-29.2l-5.9-12.6h-46.4l-5.7,12.6h-29L700.4,26.7z M703.1,71.8h-1.4l-13.2,27.9
		l-1.6,2.8h30.9l-1.6-2.8L703.1,71.8z"/>
	<path class="st1" d="M813.9,133.3h-44.3V26.7h44.3c35.6,0,56.5,22.8,56.5,53.3C870.4,110.6,849.4,133.3,813.9,133.3z M795.4,48.9
		v62.2h16.5c18.5,0,31.8-10.5,31.8-31.1s-13.3-31.1-31.8-31.1C811.9,48.9,795.4,48.9,795.4,48.9z"/>
</g>
<g>
	<g>
		<path class="st2" d="M774.7,219.3c0,0-5.5,5.3-15.8,5.3c-12.7,0-19.9-8.5-19.9-19.4c0-13.6,10.8-25.1,26.1-25.1
			c10.4,0,14.4,5.3,14.4,5.3l-5.8,6.6c0,0-3.9-3.6-9.5-3.6c-9,0-16.1,6.8-16.1,15.9c0,7.1,4.8,12.2,12.2,12.2
			c6.5,0,10.5-3.7,10.5-3.7L774.7,219.3z"/>
		<path class="st2" d="M819.1,198.4L805,210.9h-1.7l-10.8-12.5l-3.5,25.2h-8.6l6-42.7h2.4l16.8,19.2l22.3-19.2h2.3l-6,42.7h-8.5
			L819.1,198.4z"/>
		<path class="st2" d="M837.8,212.5c0,0,5.1,4.1,12,4.1c5.7,0,8-2.4,8-5.3c0-2.4-1.9-3.8-8.4-5.7c-8.5-2.5-13.1-5.7-13.1-11.5
			c0-8.3,6.6-14.1,18.6-14.1c11.5,0,15.5,4.4,15.5,4.4l-5.6,7c0,0-4.1-3.6-11-3.6c-5.1,0-7.6,1.9-7.6,4.7c0,2.3,2.1,3.5,8.1,5.1
			c9.2,2.6,13.5,6,13.5,11.9c0,8-6,15-18.9,15c-11.8,0-16.7-5.5-16.7-5.5L837.8,212.5z"/>
	</g>
</g>
</svg>
